# xmcd
#
# Track frame offsets:
#	150
#	25405
#	47010
#	63292
#	82600
#	96482
#	122015
#	143140
#	161127
#	181530
#
# Disc length: 2687 seconds
#
# Revision: 0
# Processed by: cddbd v1.4PL0 Copyright (c) Steve Scherf et al.
# Submitted via: dBpowerAMP V4.0
#
DISCID=790a7d0a
DTITLE=TinaTurner - OnFire~TheBestOf
DYEAR=1988
DGENRE=Blues
TTITLE0=What'sLoveGotToDoWithIt(TinaTurner)
TTITLE1=WeDon'tNeedAnotherHero(TinaTurner)
TTITLE2=It'sOnlyLove(TinaTurner&BryanAdams~duet)
TTITLE3=WhatYouGetIsWhatYouSee(TinaTurner)
TTITLE4=ShowSomeRespect(TinaTurner)
TTITLE5=PrivateDancer(TinaTurner)
TTITLE6=Let'sStayTogether(TinaTurner)
TTITLE7=TypicalMale(TinaTurner)
TTITLE8=TwoPeople(TinaTurner)
TTITLE9=BreakEveryRule(TinaTurner)
EXTD=
EXTT0=
EXTT1=
EXTT2=
EXTT3=
EXTT4=
EXTT5=
EXTT6=
EXTT7=
EXTT8=
EXTT9=
PLAYORDER=
